<svg width="24" height="24" viewBox="0 0 24 24" fill="none" xmlns="http://www.w3.org/2000/svg">
<path d="M13.4993 5.93786V3C13.4993 2.44772 13.0516 2 12.4993 2H11.4993C10.947 2 10.4993 2.44772 10.4993 3V7.66991M13.4993 5.93786L15.631 4.70712C15.8607 4.57451 16.1337 4.53858 16.3899 4.60722L19.1219 5.33927C19.6554 5.48221 19.972 6.03055 19.829 6.56402L19.097 9.29607C19.0283 9.55225 18.8607 9.77067 18.631 9.90327L13.4993 12.8661M13.4993 5.93786L10.4993 7.66991M10.4993 7.66991L3.8654 11.5C3.38711 11.7762 3.22323 12.3877 3.49938 12.866L5.49938 16.3301C5.77552 16.8084 6.38711 16.9723 6.8654 16.6962L10.4993 14.5981M10.4993 14.5981V21C10.4993 21.5523 10.947 22 11.4993 22H12.4993C13.0516 22 13.4993 21.5523 13.4993 21V12.8661M10.4993 14.5981L13.4993 12.8661" stroke="#6B6E80" stroke-width="1.5"/>
</svg>
