<svg width="25" height="24" viewBox="0 0 25 24" fill="none" xmlns="http://www.w3.org/2000/svg">
<g clip-path="url(#clip0_7548_34771)">
<path d="M21.5092 8.18242C21.3693 8.29043 18.8994 9.67537 18.8994 12.7549C18.8994 16.3168 22.0423 17.577 22.1364 17.6082C22.1219 17.685 21.6371 19.3339 20.4793 21.0141C19.4469 22.4926 18.3688 23.9688 16.7286 23.9688C15.0884 23.9688 14.6663 23.0207 12.7729 23.0207C10.9276 23.0207 10.2716 24 8.77129 24C7.271 24 6.22418 22.6319 5.02058 20.9517C3.62642 18.9787 2.5 15.9136 2.5 13.0045C2.5 8.33843 5.54881 5.86379 8.54938 5.86379C10.1437 5.86379 11.4728 6.90549 12.4738 6.90549C13.4265 6.90549 14.9123 5.80138 16.7262 5.80138C17.4136 5.80138 19.8835 5.86379 21.5092 8.18242ZM15.8651 3.82598C16.6152 2.94029 17.1459 1.71137 17.1459 0.482448C17.1459 0.312031 17.1314 0.139214 17.1 0C15.8795 0.0456046 14.4275 0.808881 13.5519 1.81938C12.8645 2.59706 12.2229 3.82598 12.2229 5.07171C12.2229 5.25893 12.2543 5.44614 12.2687 5.50615C12.3459 5.52055 12.4713 5.53735 12.5968 5.53735C13.6918 5.53735 15.0691 4.80768 15.8651 3.82598Z" fill="black"/>
</g>
<defs>
<clipPath id="clip0_7548_34771">
<rect width="24" height="24" fill="white" transform="translate(0.5)"/>
</clipPath>
</defs>
</svg>
