<svg width="375" height="68" viewBox="0 0 375 68" fill="none" xmlns="http://www.w3.org/2000/svg">
<g clip-path="url(#clip0_7513_49305)">
<path d="M136.243 33.4326C134.742 32.9542 133.881 29.9533 135.899 29.6967C137.027 29.6705 137.668 30.8141 137.763 31.8555C137.971 34.0567 136.598 36.1046 134.77 37.1249C130.449 39.5802 124.953 37.095 122.494 33.009C120.929 30.6459 120.148 27.7509 120.242 24.8957C120.242 22.7954 121.629 20.9629 123.201 19.8106C122.629 21.4974 121.949 23.3684 122.106 25.2544C122.356 30.185 126.101 35.6549 131.301 35.356C125.684 31.8704 129.828 23.1143 135.945 24.3725C145.506 26.839 142.361 41.4376 138.528 48.1769C138.084 48.9592 137.578 49.6967 137.065 50.4304C136.642 50.8676 136.401 51.7073 135.775 51.8244C131.708 52.3712 127.105 51.6985 123.862 49.0688C130.305 49.962 136.819 45.2881 138.848 38.981C136.593 43.1517 133.279 47.1691 128.581 48.4223C126.767 48.8334 124.612 49.2208 122.876 48.3912C121.998 47.8742 121.023 47.0047 120.459 46.1252C121.719 46.4242 121.944 46.4703 122.585 46.5936C126.447 47.209 130.725 45.7552 133.28 42.7069C130.64 44.6615 127.672 46.0891 124.317 45.9221C122.385 45.7727 119.939 45.5472 118.777 43.7297C115.84 38.9573 115.552 32.7711 117.513 27.554C117.869 26.5799 118.422 25.6057 118.935 24.7636C119.025 24.7711 119.028 24.8533 119.031 24.9206C119.008 25.7203 118.922 26.5188 118.991 27.3186C119.199 30.7543 120.614 34.0779 122.891 36.593C127.97 42.839 139.631 41.5509 140.101 32.3687C140.368 28.2604 135.48 24.6702 132.286 27.9066C129.35 31.0022 132.487 35.7745 136.244 33.4301L136.243 33.4326ZM117.738 30.3606C117.409 36.3675 123.166 43.2713 129.268 42.5226C122.974 42.3868 118.219 36.5817 117.738 30.3606Z" fill="#5E9F9F"/>
<path d="M147.323 44.6291C150.149 37.1685 148.596 26.4752 140.709 23.0545C137.177 21.739 133.016 22.5973 130.186 25.1137C128.854 26.5786 129.778 24.8047 130.159 24.1869C132.281 20.3476 137.092 18.6173 141.136 19.9153C151.051 23.1106 153.34 36.7213 147.323 44.6291Z" fill="#5E9F9F"/>
<path d="M139.932 50.555C144.084 43.6661 146.076 33.7054 140.991 26.7368C140.483 26.0916 139.93 25.4986 139.29 24.9916C145.959 26.7979 147.538 35.8642 145.939 42.1763C145.392 44.4447 144.533 46.6559 143.291 48.6166C142.265 49.3603 141.105 50.104 139.932 50.555Z" fill="#5E9F9F"/>
<path d="M127.683 30.4329C127.683 32.5145 127.951 32.7325 128.268 33.759C127.047 33.0377 126.502 31.2002 126.203 29.8013C124.638 22.6795 131.054 14.9723 138.238 16.8471C140.005 17.2607 141.823 18.3532 143.06 19.6375C141.707 19.0769 141.073 18.773 138.983 18.5089C132.435 17.749 127.656 24.1183 127.683 30.4329Z" fill="#5E9F9F"/>
<path d="M123.159 25.0265C122.955 19.2713 127.495 16.066 132.692 16C129.548 17.1498 126.597 20.0424 125.721 23.696C124.955 26.4466 125.114 29.5248 126.264 32.066C124.183 30.6621 123.222 27.564 123.16 25.0277L123.159 25.0265Z" fill="#5E9F9F"/>
</g>
<path d="M174.858 18C177.354 18 179.715 18.5818 181.815 19.6182L176.296 25.1871C175.828 25.1099 175.348 25.0698 174.858 25.0698C169.97 25.0698 166.007 29.068 166.007 34C166.007 38.932 169.97 42.9302 174.858 42.9302C178.502 42.9302 181.631 40.7087 182.988 37.5349H177.255L184.262 30.4651H190.42V37.5349H190.327C188.733 44.6706 182.412 50 174.858 50C166.1 50 159 42.8366 159 34C159 25.1634 166.1 18 174.858 18Z" fill="#5E9F9F"/>
<path d="M200.639 46.9904C198.783 46.9904 197.186 46.6077 195.847 45.8421C194.516 45.0686 193.49 43.9761 192.769 42.5646C192.049 41.1451 191.689 39.4665 191.689 37.5287C191.689 35.6388 192.049 33.9801 192.769 32.5526C193.49 31.1252 194.504 30.0128 195.811 29.2153C197.127 28.4179 198.669 28.0191 200.439 28.0191C201.629 28.0191 202.737 28.2145 203.763 28.6053C204.796 28.988 205.697 29.5662 206.464 30.3397C207.239 31.1132 207.842 32.0861 208.273 33.2584C208.704 34.4226 208.919 35.7863 208.919 37.3493V38.7488H193.686V35.5909H204.209C204.209 34.8573 204.053 34.2073 203.739 33.6411C203.426 33.075 202.992 32.6324 202.436 32.3134C201.888 31.9864 201.249 31.823 200.521 31.823C199.762 31.823 199.088 32.0024 198.501 32.3612C197.922 32.7121 197.468 33.1866 197.139 33.7847C196.81 34.3748 196.641 35.0327 196.634 35.7584V38.7608C196.634 39.6699 196.798 40.4553 197.127 41.1172C197.464 41.7791 197.937 42.2895 198.548 42.6483C199.159 43.0072 199.883 43.1866 200.721 43.1866C201.277 43.1866 201.786 43.1069 202.248 42.9474C202.71 42.7879 203.105 42.5486 203.434 42.2297C203.763 41.9107 204.013 41.5199 204.186 41.0574L208.813 41.3684C208.578 42.5008 208.097 43.4896 207.369 44.3349C206.648 45.1722 205.716 45.8262 204.573 46.2966C203.438 46.7592 202.126 46.9904 200.639 46.9904Z" fill="#5E9F9F"/>
<path d="M217.188 36.0096V46.6316H212.184V28.2584H216.953V31.5H217.164C217.563 30.4314 218.233 29.5861 219.172 28.9641C220.112 28.3341 221.251 28.0191 222.59 28.0191C223.843 28.0191 224.935 28.2982 225.867 28.8565C226.799 29.4147 227.523 30.2121 228.04 31.2488C228.557 32.2775 228.815 33.5056 228.815 34.933V46.6316H223.812V35.8421C223.82 34.7177 223.538 33.8405 222.966 33.2105C222.394 32.5726 221.608 32.2536 220.605 32.2536C219.932 32.2536 219.337 32.4011 218.82 32.6962C218.311 32.9912 217.912 33.4218 217.622 33.988C217.34 34.5463 217.195 35.2201 217.188 36.0096Z" fill="#5E9F9F"/>
<path d="M232.853 46.6316V22.134H237.856V31.3445H238.009C238.228 30.8501 238.545 30.3477 238.96 29.8373C239.383 29.319 239.931 28.8884 240.604 28.5455C241.285 28.1946 242.131 28.0191 243.141 28.0191C244.457 28.0191 245.67 28.37 246.782 29.0718C247.894 29.7656 248.783 30.8142 249.448 32.2177C250.114 33.6132 250.447 35.3636 250.447 37.4689C250.447 39.5183 250.122 41.2488 249.472 42.6603C248.83 44.0638 247.953 45.1284 246.841 45.8541C245.737 46.5718 244.5 46.9306 243.129 46.9306C242.159 46.9306 241.332 46.7671 240.651 46.4402C239.978 46.1132 239.426 45.7026 238.995 45.2081C238.565 44.7057 238.236 44.1994 238.009 43.689H237.785V46.6316H232.853ZM237.75 37.445C237.75 38.5375 237.899 39.4904 238.197 40.3038C238.494 41.1172 238.925 41.7512 239.488 42.2057C240.052 42.6523 240.737 42.8756 241.544 42.8756C242.358 42.8756 243.047 42.6483 243.611 42.1938C244.175 41.7313 244.602 41.0933 244.891 40.2799C245.189 39.4585 245.338 38.5136 245.338 37.445C245.338 36.3844 245.193 35.4514 244.903 34.6459C244.613 33.8405 244.187 33.2105 243.623 32.756C243.059 32.3014 242.366 32.0742 241.544 32.0742C240.73 32.0742 240.041 32.2935 239.477 32.7321C238.921 33.1707 238.494 33.7927 238.197 34.5981C237.899 35.4035 237.75 36.3525 237.75 37.445Z" fill="#5E9F9F"/>
<path d="M253.785 46.6316V28.2584H258.789V46.6316H253.785ZM256.299 25.89C255.555 25.89 254.917 25.6388 254.384 25.1364C253.86 24.626 253.597 24.0159 253.597 23.3062C253.597 22.6045 253.86 22.0024 254.384 21.5C254.917 20.9896 255.555 20.7344 256.299 20.7344C257.042 20.7344 257.677 20.9896 258.201 21.5C258.734 22.0024 259 22.6045 259 23.3062C259 24.0159 258.734 24.626 258.201 25.1364C257.677 25.6388 257.042 25.89 256.299 25.89Z" fill="#5E9F9F"/>
<defs>
<clipPath id="clip0_7513_49305">
<rect width="36" height="35" fill="white" transform="translate(151 16) rotate(90)"/>
</clipPath>
</defs>
</svg>
