<svg width="24" height="24" viewBox="0 0 24 24" fill="none" xmlns="http://www.w3.org/2000/svg">
<path d="M12.2441 9.81812V14.4654H18.8342C18.5448 15.9599 17.6764 17.2254 16.374 18.0763L20.348 21.0982C22.6635 19.0037 23.9993 15.9273 23.9993 12.2728C23.9993 11.4219 23.9214 10.6036 23.7766 9.81825L12.2441 9.81812Z" fill="#4285F4"/>
<path d="M5.38338 14.2839L4.48708 14.9563L1.31445 17.3781C3.32931 21.2944 7.45892 23.9999 12.2456 23.9999C15.5516 23.9999 18.3234 22.9308 20.3495 21.0981L16.3754 18.0763C15.2845 18.7963 13.893 19.2327 12.2456 19.2327C9.06188 19.2327 6.35692 17.1273 5.38838 14.2909L5.38338 14.2839Z" fill="#34A853"/>
<path d="M1.31346 6.62177C0.478619 8.23624 0 10.0581 0 11.9999C0 13.9416 0.478619 15.7635 1.31346 17.378C1.31346 17.3888 5.38778 14.2798 5.38778 14.2798C5.14288 13.5598 4.99813 12.7962 4.99813 11.9997C4.99813 11.2033 5.14288 10.4397 5.38778 9.71969L1.31346 6.62177Z" fill="#FBBC05"/>
<path d="M12.2458 4.77817C14.0492 4.77817 15.6522 5.38906 16.9323 6.56726L20.4388 3.13094C18.3126 1.18916 15.552 0 12.2458 0C7.45917 0 3.32931 2.69454 1.31445 6.62181L5.38865 9.71999C6.35706 6.88361 9.06213 4.77817 12.2458 4.77817Z" fill="#EA4335"/>
</svg>
