<svg width="20" height="20" viewBox="0 0 20 20" fill="none" xmlns="http://www.w3.org/2000/svg">
<path d="M5.83374 2.70865H14.1667C15.6085 2.70865 16.6891 3.12161 17.4089 3.84146C18.1287 4.56131 18.5417 5.64202 18.5417 7.08365V12.9167C18.5417 14.3584 18.1288 15.439 17.4089 16.1588C16.6891 16.8787 15.6085 17.2917 14.1667 17.2917H5.83374C4.39211 17.2917 3.3114 16.8786 2.59155 16.1588C1.8717 15.439 1.45874 14.3584 1.45874 12.9167V7.08365C1.45874 5.64191 1.8717 4.56131 2.59155 3.84146C3.3114 3.12161 4.392 2.70865 5.83374 2.70865ZM5.83374 3.12466C4.58083 3.12466 3.56846 3.42901 2.87378 4.12369C2.1791 4.81836 1.87476 5.83074 1.87476 7.08365V12.9167C1.87476 14.1694 2.17933 15.181 2.87378 15.8756C3.56846 16.5703 4.58083 16.8747 5.83374 16.8747H14.1667C15.4197 16.8747 16.4311 16.5703 17.1257 15.8756C17.8204 15.181 18.1248 14.1696 18.1248 12.9167V7.08365C18.1248 5.83074 17.8204 4.81836 17.1257 4.12369C16.4311 3.42924 15.4195 3.12466 14.1667 3.12466H5.83374Z" fill="#9C9FAF" stroke="#9C9FAF" stroke-width="0.833333"/>
<path d="M9.99973 10.725C9.29973 10.725 8.5914 10.5083 8.04974 10.0666L5.4414 7.98331C5.17473 7.76664 5.12474 7.37497 5.3414 7.10831C5.55807 6.84164 5.94974 6.79164 6.21641 7.00831L8.82473 9.09164C9.45806 9.59998 10.5331 9.59998 11.1664 9.09164L13.7747 7.00831C14.0414 6.79164 14.4414 6.83331 14.6497 7.10831C14.8664 7.37497 14.8247 7.77498 14.5497 7.98331L11.9414 10.0666C11.4081 10.5083 10.6997 10.725 9.99973 10.725Z" fill="#9C9FAF"/>
</svg>
